<?xml version="1.0" encoding="utf-8"?>
<!-- Generator: Adobe Illustrator 21.0.2, SVG Export Plug-In . SVG Version: 6.00 Build 0)  -->
<svg version="1.1" id="Layer_1" xmlns="http://www.w3.org/2000/svg" xmlns:xlink="http://www.w3.org/1999/xlink" x="0px" y="0px"
	 viewBox="0 0 150.5 40.8" style="enable-background:new 0 0 150.5 40.8;" xml:space="preserve">
<style type="text/css">
	.st0{fill:#4845D2;}
	.st1{fill:#A3A2FF;}
	.st2{opacity:0.6;fill:#424242;enable-background:new    ;}
	.st3{font-family:'Roboto-Bold';}
	.st4{font-size:18px;}
</style>
<title>Asset 1</title>
<g id="Layer_2">
	<g id="logo-33">
		<path class="st0" d="M26.1,1.1c-1.5-1.5-3.9-1.5-5.4,0c0,0,0,0,0,0L8.3,13.6H8.2l0,0c-2.1,0.3-3.1,0.9-3.1,1.8
			c0,0.4,0.2,0.7,0.4,1l0,0c2,3,11.8,7,18.8,4.3c-5.2,2.6-17.5,3.1-21.2-1.9c-0.8,0.8-1.1,1.9-1,3c1,5.3,11.6,6.7,22.3-0.9l2.3,2.3
			c-2.9,3-7.1,20.1-0.8,17.5l0.5-0.3l0.3-0.3l0,0l16.8-15.9c1.5-1.4,1.6-3.9,0.2-5.4c0,0-0.1-0.1-0.1-0.1L26.1,1.1z M24.3,6.3
			L24.9,4l0.6,2.3l1.7,0.6l-1.7,0.6l-0.6,2.3l-0.6-2.3l-1.7-0.6L24.3,6.3z M17.1,13.9l0.4-1.5l0.4,1.5l1.1,0.4l-1.1,0.4l-0.4,1.5
			l-0.4-1.5L16,14.2L17.1,13.9z M30.5,26.9l-0.4,1.5L29,28.7l1.1,0.4l0.4,1.5l0.4-1.5l1.1-0.4l-1.1-0.4L30.5,26.9z"/>
		<path class="st1" d="M44.8,2.7c-3.6,0-7,1.6-9.3,4.3l-8.2,9.9L32,9.7l-7.8,3.4c-0.8,0.3-1.1,1.2-0.8,2c0.1,0.2,0.2,0.3,0.3,0.5
			l2.5,2.5l-1.3,1.5l2.9,2.9l1.5-1.3l2.5,2.5c0.6,0.6,1.6,0.6,2.2,0c0.1-0.1,0.2-0.3,0.3-0.5l3.4-7.9l-7.1,4.8l9.9-8.2
			C43.2,9.7,44.8,6.3,44.8,2.7z M37,10.5c0.8,0.8,2.1,0.8,2.8,0c0.8-0.8,0.8-2.1,0-2.8c-0.8-0.8-2-0.8-2.8,0
			C36.2,8.4,36.2,9.7,37,10.5C37,10.5,37,10.5,37,10.5z"/>
		<path class="st2" d="M3.1,18.6C5,25,16.4,24.7,24.3,20.6C19,23.3,6.6,23.8,3.1,18.6z"/>
		<path class="st2" d="M25.9,40.6c-5.3,2.2-3.1-9.6-0.6-15.2c-1.8,4.9-3.4,15.8,1.3,14.6l-0.3,0.3L25.9,40.6z"/>
		<text transform="matrix(1 0 0 1 51.514 26.254)" class="st0 st3 st4">stock watch</text>
	</g>
</g>
</svg>
