<svg xmlns="http://www.w3.org/2000/svg" viewBox="0 0 73.21 33.55"><defs><style>.cls-1,.cls-5{fill:#4845d2;}.cls-2{fill:#a3a2ff;}.cls-3{fill:#424242;opacity:0.6;}.cls-3,.cls-4,.cls-5{isolation:isolate;}.cls-5{font-size:13.01px;font-family:Roboto-Bold, Roboto;font-weight:700;}</style></defs><title>Asset 6</title><g id="Layer_2" data-name="Layer 2"><g id="Layer_1-2" data-name="Layer 1"><g id="Layer_2-2" data-name="Layer 2"><g id="logo-33"><path class="cls-1" d="M19.73.92a3.14,3.14,0,0,0-4.44,0h0L5,11.16H5c-1.76.21-2.51.75-2.51,1.44a1.54,1.54,0,0,0,.3.82h0c1.64,2.46,9.71,5.75,15.44,3.51C13.91,19.09,3.81,19.51.84,15.35A3.14,3.14,0,0,0,0,17.81c.82,4.36,9.56,5.52,18.32-.73l1.9,1.9c-2.36,2.46-5.84,16.5-.67,14.35l.37-.26.23-.22h0L34,19.76a3.14,3.14,0,0,0,.14-4.43l-.07-.07ZM18.2,5.18l.48-1.9.48,1.9,1.4.48-1.42.48L18.65,8l-.48-1.9-1.42-.48Zm-5.86,6.19.31-1.26L13,11.38l.94.31L13,12l-.31,1.26L12.33,12l-.94-.31Zm11,10.68L23,23.29l-.94.31.94.31.31,1.26.31-1.26.94-.31-.94-.31Z"/><path class="cls-2" d="M35.06,2.18a10,10,0,0,0-7.68,3.57l-6.75,8.1L24.53,8l-6.45,2.79a1.26,1.26,0,0,0-.39,2.05l2,2.09L18.67,16.2,21,18.54l1.27-1.06,2.09,2.09a1.26,1.26,0,0,0,2.05-.39l2.78-6.47-5.85,3.9,8.11-6.75A10,10,0,0,0,35.06,2.18ZM28.63,8.61a1.64,1.64,0,1,0,0-2.34,1.64,1.64,0,0,0,0,2.34Z"/><path class="cls-3" d="M.77,15.24c1.55,5.29,11,5,17.43,1.7C13.87,19.1,3.64,19.51.77,15.24Z"/><path class="cls-3" d="M19.56,33.33c-4.36,1.81-2.57-7.9-.49-12.45-1.51,4-2.81,13,1.09,12l-.23.22Z"/><g class="cls-4"><text class="cls-5" transform="translate(39.62 15.71)">stock<tspan x="-1.41" y="11.39">watch</tspan></text></g></g></g></g></g></svg>