<svg xmlns="http://www.w3.org/2000/svg" viewBox="0 0 150.5 40.85"><defs><style>.cls-1,.cls-4{fill:#4845d2;}.cls-2{fill:#a3a2ff;}.cls-3{fill:#424242;opacity:0.6;isolation:isolate;}.cls-4{font-size:19.13px;font-family: Roboto;}.cls-5{letter-spacing:-0.01em;}</style></defs><title>Asset 1</title><g id="Layer_2" data-name="Layer 2"><g id="logo-33"><path class="cls-1" d="M24,1.12a3.82,3.82,0,0,0-5.41,0L6.11,13.59H6.06l0,0C3.92,13.84,3,14.5,3,15.34a1.88,1.88,0,0,0,.37,1h0c2,3,11.83,7,18.8,4.27C16.92,23.24,4.62,23.76,1,18.69a3.82,3.82,0,0,0-1,3C1,27,11.64,28.41,22.31,20.8l2.31,2.31c-2.87,3-7.11,20.09-.81,17.47l.45-.32.28-.27h0L41.37,24.06a3.82,3.82,0,0,0,.08-5.49ZM22.14,6.31,22.72,4l.58,2.31L25,6.89l-1.73.58-.58,2.31-.58-2.31-1.73-.58ZM15,13.85l.38-1.54.38,1.54,1.15.38-1.15.38-.38,1.54L15,14.62l-1.15-.38Zm13.4,13L28,28.36l-1.15.38,1.15.38.38,1.54.38-1.54,1.15-.38-1.15-.38Z"/><path class="cls-2" d="M42.67,2.65A12.16,12.16,0,0,0,33.32,7l-8.22,9.86,4.75-7.12L22,13.14a1.54,1.54,0,0,0-.48,2.5L24,18.18l-1.29,1.55,2.85,2.85,1.55-1.29,2.54,2.54a1.54,1.54,0,0,0,2.5-.48l3.38-7.88-7.12,4.75L38.29,12A12.16,12.16,0,0,0,42.67,2.65Zm-7.83,7.83a2,2,0,1,0,0-2.85A2,2,0,0,0,34.84,10.48Z"/><path class="cls-3" d="M.92,18.56C2.81,25,14.27,24.68,22.14,20.63,16.87,23.26,4.41,23.76.92,18.56Z"/><path class="cls-3" d="M23.8,40.58c-5.31,2.2-3.13-9.62-.6-15.16C21.36,30.34,19.78,41.2,24.53,40l-.28.27Z"/><text class="cls-4" transform="translate(47.25 26.12)">s<tspan class="cls-5" x="9.84" y="0">t</tspan><tspan x="16.02" y="0">ock watch</tspan></text></g></g></svg>